<?xml version="1.0" encoding="UTF-8" standalone="no"?><!DOCTYPE svg PUBLIC "-//W3C//DTD SVG 1.1//EN" "http://www.w3.org/Graphics/SVG/1.1/DTD/svg11.dtd"><svg width="100%" height="100%" viewBox="0 0 1200 800" version="1.1" xmlns="http://www.w3.org/2000/svg" xmlns:xlink="http://www.w3.org/1999/xlink" xml:space="preserve" xmlns:serif="http://www.serif.com/" style="fill-rule:evenodd;clip-rule:evenodd;stroke-linecap:round;stroke-linejoin:round;stroke-miterlimit:1.5;"><rect x="0" y="0" width="1200" height="800" style="fill:#0b4f6c;"/><circle cx="600" cy="400" r="300" style="fill:#82a486;stroke:url(#_Linear1);stroke-width:4.17px;"/><path d="M610,197.5c117.282,-0 212.5,95.218 212.5,212.5c0,117.282 -95.218,212.5 -212.5,212.5c-117.282,0 -212.5,-95.218 -212.5,-212.5c0,-117.282 95.218,-212.5 212.5,-212.5Zm0,87.5c68.989,0 125,56.011 125,125c0,68.989 -56.011,125 -125,125c-68.989,0 -125,-56.011 -125,-125c0,-68.989 56.011,-125 125,-125Z" style="fill:#739577;"/><circle cx="780" cy="410" r="62.5" style="fill:#739577;"/><path d="M429.842,272.754c38.779,-51.748 100.586,-85.254 170.158,-85.254c117.282,-0 212.5,95.218 212.5,212.5c0,8.726 -0.527,17.329 -1.552,25.79l-86.257,-34.637c-4.543,-64.866 -58.675,-116.153 -124.691,-116.153c-32.28,0 -61.719,12.262 -83.915,32.386l-86.243,-34.632Z" style="fill:url(#_Radial2);"/><path d="M499.569,212.718l-0.017,-0.032c-0,-0 0,-0 0.002,-0.001c21.293,-11.417 47.811,-3.411 59.228,17.882c0.001,0.001 0.001,0.002 0.002,0.004c11.417,21.293 3.411,47.811 -17.882,59.228c-0.001,0 -0.001,0.001 -0.001,0.001l0.019,0.037c-39.229,21.098 -65.92,62.538 -65.92,110.163c-0,68.989 56.011,125 125,125c68.989,0 125,-56.011 125,-125c0,-7.12 -0.597,-14.101 -1.742,-20.892l84.923,63.687c-19.83,96.804 -105.559,169.705 -208.181,169.705c-117.282,0 -212.5,-95.218 -212.5,-212.5c0,-80.962 45.376,-151.41 112.069,-187.282Z" style="fill:url(#_Radial3);"/><circle cx="770" cy="400" r="62.5"/><defs><linearGradient id="_Linear1" x1="0" y1="0" x2="1" y2="0" gradientUnits="userSpaceOnUse" gradientTransform="matrix(425,425,-425,425,387.5,187.5)"><stop offset="0" style="stop-color:#99b49c;stop-opacity:1"/><stop offset="1" style="stop-color:#648167;stop-opacity:1"/></linearGradient><radialGradient id="_Radial2" cx="0" cy="0" r="1" gradientUnits="userSpaceOnUse" gradientTransform="matrix(0,425,-425,0,387.5,187.5)"><stop offset="0" style="stop-color:#b6cf90;stop-opacity:1"/><stop offset="1" style="stop-color:#b4cd8c;stop-opacity:1"/></radialGradient><radialGradient id="_Radial3" cx="0" cy="0" r="1" gradientUnits="userSpaceOnUse" gradientTransform="matrix(2.60237e-14,425,-425,2.60237e-14,387.5,187.5)"><stop offset="0" style="stop-color:#19718e;stop-opacity:1"/><stop offset="1" style="stop-color:#096787;stop-opacity:1"/></radialGradient></defs></svg>